<svg width="36" height="36" viewBox="0 0 36 36" fill="none" xmlns="http://www.w3.org/2000/svg">
<path d="M5 8H6.74001C7.82001 8 8.67 8.93 8.58 10L7.75 19.96C7.61 21.59 8.89999 22.99 10.54 22.99H21.19C22.63 22.99 23.89 21.81 24 20.38L24.54 12.88C24.66 11.22 23.4 9.87 21.73 9.87H8.82001" stroke="#464646" stroke-width="1.5" stroke-miterlimit="10" stroke-linecap="round" stroke-linejoin="round"/>
<path d="M19.25 28C19.9404 28 20.5 27.4404 20.5 26.75C20.5 26.0596 19.9404 25.5 19.25 25.5C18.5596 25.5 18 26.0596 18 26.75C18 27.4404 18.5596 28 19.25 28Z" stroke="#464646" stroke-width="1.5" stroke-miterlimit="10" stroke-linecap="round" stroke-linejoin="round"/>
<path d="M11.25 28C11.9404 28 12.5 27.4404 12.5 26.75C12.5 26.0596 11.9404 25.5 11.25 25.5C10.5596 25.5 10 26.0596 10 26.75C10 27.4404 10.5596 28 11.25 28Z" stroke="#464646" stroke-width="1.5" stroke-miterlimit="10" stroke-linecap="round" stroke-linejoin="round"/>
<path d="M12 14H24" stroke="#464646" stroke-width="1.5" stroke-miterlimit="10" stroke-linecap="round" stroke-linejoin="round"/>
<g clip-path="url(#clip0_128_7185)">
<rect x="18" width="16" height="16" rx="8" fill="#860920"/>
<path d="M23.504 5.6V3.794H26.878V14H24.862V5.6H23.504Z" fill="white"/>
</g>
<defs>
<clipPath id="clip0_128_7185">
<rect x="18" width="16" height="16" rx="8" fill="white"/>
</clipPath>
</defs>
</svg>
