<svg width="25" height="24" viewBox="0 0 25 24" fill="none" xmlns="http://www.w3.org/2000/svg">
<path d="M24.0601 12C24.0601 5.3726 18.6875 2.67029e-05 12.0601 2.67029e-05C5.43264 2.67029e-05 0.0600586 5.3726 0.0600586 12C0.0600586 17.9896 4.44829 22.954 10.1851 23.8542V15.4688H7.13818V12H10.1851V9.35628C10.1851 6.34878 11.9766 4.68753 14.7176 4.68753C16.0305 4.68753 17.4038 4.9219 17.4038 4.9219V7.87503H15.8906C14.3999 7.87503 13.9351 8.80003 13.9351 9.74902V12H17.2632L16.7312 15.4688H13.9351V23.8542C19.6718 22.954 24.0601 17.9896 24.0601 12Z" fill="#F2F3F3"/>
</svg>
